<svg width="49" height="34" viewBox="0 0 49 34" fill="none" xmlns="http://www.w3.org/2000/svg">
<path fill-rule="evenodd" clip-rule="evenodd" d="M0 8.50301C4.63905 6.45153 8.11834 4.69311 13.0473 2.64163C15.9467 1.76243 18.4112 1.90896 21.1657 1.46936C25.2249 1.46936 23.6302 0.297082 29.1391 1.02975C30.2988 0.883219 30.7265 -0.0692545 31.8935 0.00401274C33.1504 0.00401274 33.8259 0.393794 33.9231 1.17629L37.6923 1.90896L34.213 2.64163C33.8259 3.42266 33.0533 3.86226 31.8935 3.96044C30.1538 5.71886 30.2988 6.59806 27.6894 7.03767C30.8787 8.94261 31.0237 9.52875 36.9675 12.606C38.8521 14.2179 38.8521 14.804 39.432 17.1485C40.0118 19.4902 41.4702 20.9203 42.4763 22.2772C46.2456 29.0178 45.8107 30.9228 49 34C47.4053 33.8535 45.6657 32.8277 44.9408 32.0951C44.3609 31.9485 44.5059 32.8277 44.5059 33.2673C43.6361 32.9743 43.3462 31.0693 42.1864 31.3624C41.6848 31.3624 42.7663 32.0951 42.1864 33.2673C40.3018 32.5347 40.1568 32.2416 39.8669 31.3624C39.432 30.7762 38.8521 29.7505 39.432 29.604C39.142 30.7762 39.432 31.3624 38.5621 31.3624C37.8373 29.897 37.5473 30.9228 36.9675 29.604C35.8077 27.5525 34.503 27.8456 34.503 25.3545C33.9231 25.3545 33.4882 25.9406 33.0533 26.6733C32.6183 26.0871 33.0533 25.3545 32.9083 24.9149C32.6183 25.0116 32.2806 25.1581 31.8935 25.3545C31.6035 23.4979 31.6035 22.1791 31.8935 21.398C30.7337 21.6911 31.3136 22.2772 29.7189 22.8634C28.9941 21.9842 29.1391 21.105 29.429 19.7862C28.7041 20.6654 28.7041 19.3466 27.6894 20.0792C26.3846 18.7604 26.2396 17.4416 24.0651 17.4416C23.3402 15.6832 23.6302 14.5109 22.4704 14.2179C22.0022 14.3439 21.8905 15.6832 21.6006 15.2436C21.3107 14.804 21.3107 13.7782 20.8757 13.4852C20.5858 13.0456 20.0059 14.3644 19.571 13.9248C19.571 13.1921 19.2811 12.3129 18.7012 11.8733C18.2663 11.2872 17.9763 11.8733 17.2515 12.3129C16.9615 11.5802 16.9615 10.9941 17.1065 10.2614C16.5266 10.1149 15.0769 10.9941 15.3669 9.96835C15.3669 8.94261 14.787 9.38222 14.2071 9.38222C13.4822 9.38222 14.3521 8.64954 14.0621 8.50301C13.3373 8.20994 12.1775 8.79608 11.0178 9.38222C10.2929 9.08915 11.5976 7.91687 11.0178 7.91687C6.52367 7.77034 5.50888 8.94261 0 8.50301Z" fill="black"/>
</svg>
